<?xml version="1.0" encoding="utf-8"?>
<!-- Generator: Adobe Illustrator 26.3.1, SVG Export Plug-In . SVG Version: 6.00 Build 0)  -->
<svg version="1.1" id="Layer_1" xmlns="http://www.w3.org/2000/svg" xmlns:xlink="http://www.w3.org/1999/xlink" x="0px" y="0px"
	 viewBox="0 0 228.95 72.51" style="enable-background:new 0 0 228.95 72.51;" xml:space="preserve">
<style type="text/css">
	.st0{fill:#FFFFFF;}
	.st1{fill:none;stroke:#FFFFFF;}
</style>
<g>
	<g>
		<g>
			<path class="st0" d="M40.95,45.35h-5.1L34.9,24.83l-4.16,20.52h-4.85l5.46-24.56h7.67l0.8,17.2l8.92-17.2h7.76l-5.48,24.56h-4.91
				l5.16-20.37L40.95,45.35z"/>
			<path class="st0" d="M74.76,37.94H61.92c-0.01,0.19-0.02,0.33-0.02,0.44c0,1.18,0.36,2.14,1.08,2.86
				c0.72,0.73,1.6,1.09,2.63,1.09c1.7,0,2.98-0.51,3.8-1.69l4.72-0.02c-0.89,1.73-2.04,2.98-3.53,3.84c-1.49,0.87-3.17,1.3-5.02,1.3
				c-2.55,0-4.62-0.76-6.21-2.27c-1.59-1.51-2.39-3.51-2.39-6c0-2.43,0.72-4.6,2.16-6.5c1.96-2.57,4.76-3.85,8.4-3.85
				c2.32,0,4.16,0.67,5.53,2.02c1.37,1.35,2.05,3.23,2.05,5.65C75.12,35.97,75,37.02,74.76,37.94z M70.45,35.01
				c0.01-0.21,0.02-0.37,0.02-0.49c0-1.32-0.32-2.31-0.95-2.96c-0.63-0.66-1.48-0.99-2.53-0.99c-1.06,0-2.01,0.37-2.85,1.12
				c-0.84,0.75-1.41,1.85-1.7,3.32H70.45z"/>
			<path class="st0" d="M94.14,45.35h-4.85l0.81-3.28c-0.93,0.84-2.1,2.48-3.12,3.15c-0.81,0.53-1.91,0.54-3.04,0.54
				c-1.96,0-3.55-0.63-4.77-1.88c-1.22-1.26-1.83-3.11-1.83-5.57c0-2.85,0.86-5.42,2.57-7.72s3.98-3.45,6.8-3.45
				c2.55,0,4.45,0.95,5.73,2.85l2.05-9.2h5.12L94.14,45.35z M82.31,38.11c0,1.27,0.34,2.27,1.03,2.98c0.68,0.71,1.53,1.07,2.52,1.07
				c0.93,0,1.79-0.3,2.6-0.9c0.8-0.6,1.45-1.51,1.93-2.74c0.48-1.23,0.72-2.41,0.72-3.53c0-1.28-0.37-2.32-1.11-3.12
				c-0.74-0.79-1.59-1.19-2.55-1.19c-1.5,0-2.73,0.78-3.69,2.35C82.79,34.6,82.31,36.29,82.31,38.11z"/>
			<path class="st0" d="M116.47,45.35h-4.85l0.67-3.14c-0.93,0.84-1.9,2.31-2.98,3.01c-0.81,0.53-1.91,0.54-3.04,0.54
				c-1.96,0-3.55-0.63-4.77-1.88c-1.22-1.26-1.83-3.11-1.83-5.57c0-2.85,0.86-5.42,2.57-7.72c1.71-2.3,3.98-3.45,6.8-3.45
				c2.55,0,4.45,0.95,5.73,2.85l2.05-9.2h5.12L116.47,45.35z M104.64,38.11c0,1.27,0.34,2.27,1.03,2.98
				c0.68,0.71,1.53,1.07,2.52,1.07c0.93,0,1.79-0.3,2.6-0.9c0.8-0.6,1.45-1.51,1.93-2.74c0.48-1.23,0.72-2.41,0.72-3.53
				c0-1.28-0.37-2.32-1.11-3.12c-0.74-0.79-1.59-1.19-2.55-1.19c-1.5,0-2.73,0.78-3.69,2.35C105.12,34.6,104.64,36.29,104.64,38.11z
				"/>
		</g>
		<g>
			<path class="st1" d="M40.95,45.35h-5.1L34.9,24.83l-4.16,20.52h-4.85l5.46-24.56h7.67l0.8,17.2l8.92-17.2h7.76l-5.48,24.56h-4.91
				l5.16-20.37L40.95,45.35z"/>
			<path class="st1" d="M74.76,37.94H61.92c-0.01,0.19-0.02,0.33-0.02,0.44c0,1.18,0.36,2.14,1.08,2.86
				c0.72,0.73,1.6,1.09,2.63,1.09c1.7,0,2.98-0.51,3.8-1.69l4.72-0.02c-0.89,1.73-2.04,2.98-3.53,3.84c-1.49,0.87-3.17,1.3-5.02,1.3
				c-2.55,0-4.62-0.76-6.21-2.27c-1.59-1.51-2.39-3.51-2.39-6c0-2.43,0.72-4.6,2.16-6.5c1.96-2.57,4.76-3.85,8.4-3.85
				c2.32,0,4.16,0.67,5.53,2.02c1.37,1.35,2.05,3.23,2.05,5.65C75.12,35.97,75,37.02,74.76,37.94z M70.45,35.01
				c0.01-0.21,0.02-0.37,0.02-0.49c0-1.32-0.32-2.31-0.95-2.96c-0.63-0.66-1.48-0.99-2.53-0.99c-1.06,0-2.01,0.37-2.85,1.12
				c-0.84,0.75-1.41,1.85-1.7,3.32H70.45z"/>
			<path class="st1" d="M94.14,45.35h-4.85l0.81-3.28c-0.93,0.84-2.1,2.48-3.12,3.15c-0.81,0.53-1.91,0.54-3.04,0.54
				c-1.96,0-3.55-0.63-4.77-1.88c-1.22-1.26-1.83-3.11-1.83-5.57c0-2.85,0.86-5.42,2.57-7.72s3.98-3.45,6.8-3.45
				c2.55,0,4.45,0.95,5.73,2.85l2.05-9.2h5.12L94.14,45.35z M82.31,38.11c0,1.27,0.34,2.27,1.03,2.98c0.68,0.71,1.53,1.07,2.52,1.07
				c0.93,0,1.79-0.3,2.6-0.9c0.8-0.6,1.45-1.51,1.93-2.74c0.48-1.23,0.72-2.41,0.72-3.53c0-1.28-0.37-2.32-1.11-3.12
				c-0.74-0.79-1.59-1.19-2.55-1.19c-1.5,0-2.73,0.78-3.69,2.35C82.79,34.6,82.31,36.29,82.31,38.11z"/>
			<path class="st1" d="M116.47,45.35h-4.85l0.67-3.14c-0.93,0.84-1.9,2.31-2.98,3.01c-0.81,0.53-1.91,0.54-3.04,0.54
				c-1.96,0-3.55-0.63-4.77-1.88c-1.22-1.26-1.83-3.11-1.83-5.57c0-2.85,0.86-5.42,2.57-7.72c1.71-2.3,3.98-3.45,6.8-3.45
				c2.55,0,4.45,0.95,5.73,2.85l2.05-9.2h5.12L116.47,45.35z M104.64,38.11c0,1.27,0.34,2.27,1.03,2.98
				c0.68,0.71,1.53,1.07,2.52,1.07c0.93,0,1.79-0.3,2.6-0.9c0.8-0.6,1.45-1.51,1.93-2.74c0.48-1.23,0.72-2.41,0.72-3.53
				c0-1.28-0.37-2.32-1.11-3.12c-0.74-0.79-1.59-1.19-2.55-1.19c-1.5,0-2.73,0.78-3.69,2.35C105.12,34.6,104.64,36.29,104.64,38.11z
				"/>
		</g>
	</g>
	<g>
		<g>
			<path class="st0" d="M145.83,45.42h-4.99l-0.92-20.06l-4.06,20.06h-4.74l5.34-24h7.5l0.78,16.82l8.72-16.82h7.59l-5.35,24h-4.8
				l5.04-19.91L145.83,45.42z"/>
			<path class="st0" d="M167.91,32.96l-4.88-0.39c0.56-1.55,1.53-2.76,2.92-3.63c1.39-0.87,3.23-1.31,5.52-1.31
				c2.38,0,4.14,0.45,5.28,1.35c1.14,0.9,1.71,2,1.71,3.3c0,0.52-0.05,1.08-0.15,1.67c-0.1,0.59-0.45,2.14-1.04,4.65
				c-0.49,2.07-0.73,3.53-0.73,4.36c0,0.74,0.14,1.57,0.42,2.47h-4.87c-0.2-0.63-0.11-2.5-0.15-3.18c-0.73,0.76-1.66,2.22-2.74,2.97
				c-0.85,0.59-1.91,0.61-2.88,0.61c-1.53,0-2.8-0.47-3.8-1.42c-1-0.94-1.5-2.16-1.5-3.64c0-1.66,0.66-2.55,1.76-3.55
				c1.1-0.99,2.45-1.24,5.28-1.45c2.38-0.19,2.95-0.41,4.71-1.14c0.64-0.26,0.88-1.49,0.88-1.89c0-0.5-0.22-0.92-0.65-1.26
				c-0.43-0.34-1.07-0.51-1.92-0.51c-0.9,0-1.6,0.17-2.12,0.52C168.45,31.84,168.09,32.33,167.91,32.96z M172.61,36.29
				c-0.62,0.31-1.66,1.03-2.59,1.45c-1.34,0.59-2.38,0.41-3.47,1.09c-0.57,0.35-0.83,0.87-0.83,1.53c0,0.55,0.21,1.01,0.63,1.38
				c0.42,0.38,0.97,0.56,1.66,0.56c0.76,0,1.47-0.17,2.14-0.52c0.67-0.34,1.17-0.79,1.5-1.33c0.33-0.54,0.62-1.38,0.88-2.53
				L172.61,36.29z"/>
			<path class="st0" d="M191.24,40.55l-4.6,4.88h-6.14l8.56-8.91l-4.71-8.48h5.32l2.7,4.96l4.69-4.96h6.09l-8.6,9.02l4.67,8.37
				h-5.32L191.24,40.55z"/>
		</g>
		<g>
			<path class="st1" d="M145.83,45.42h-4.99l-0.92-20.06l-4.06,20.06h-4.74l5.34-24h7.5l0.78,16.82l8.72-16.82h7.59l-5.35,24h-4.8
				l5.04-19.91L145.83,45.42z"/>
			<path class="st1" d="M167.91,32.96l-4.88-0.39c0.56-1.55,1.53-2.76,2.92-3.63c1.39-0.87,3.23-1.31,5.52-1.31
				c2.38,0,4.14,0.45,5.28,1.35c1.14,0.9,1.71,2,1.71,3.3c0,0.52-0.05,1.08-0.15,1.67c-0.1,0.59-0.45,2.14-1.04,4.65
				c-0.49,2.07-0.73,3.53-0.73,4.36c0,0.74,0.14,1.57,0.42,2.47h-4.87c-0.2-0.63-0.11-2.5-0.15-3.18c-0.73,0.76-1.66,2.22-2.74,2.97
				c-0.85,0.59-1.91,0.61-2.88,0.61c-1.53,0-2.8-0.47-3.8-1.42c-1-0.94-1.5-2.16-1.5-3.64c0-1.66,0.66-2.55,1.76-3.55
				c1.1-0.99,2.45-1.24,5.28-1.45c2.38-0.19,2.95-0.41,4.71-1.14c0.64-0.26,0.88-1.49,0.88-1.89c0-0.5-0.22-0.92-0.65-1.26
				c-0.43-0.34-1.07-0.51-1.92-0.51c-0.9,0-1.6,0.17-2.12,0.52C168.45,31.84,168.09,32.33,167.91,32.96z M172.61,36.29
				c-0.62,0.31-1.66,1.03-2.59,1.45c-1.34,0.59-2.38,0.41-3.47,1.09c-0.57,0.35-0.83,0.87-0.83,1.53c0,0.55,0.21,1.01,0.63,1.38
				c0.42,0.38,0.97,0.56,1.66,0.56c0.76,0,1.47-0.17,2.14-0.52c0.67-0.34,1.17-0.79,1.5-1.33c0.33-0.54,0.62-1.38,0.88-2.53
				L172.61,36.29z"/>
			<path class="st1" d="M191.24,40.55l-4.6,4.88h-6.14l8.56-8.91l-4.71-8.48h5.32l2.7,4.96l4.69-4.96h6.09l-8.6,9.02l4.67,8.37
				h-5.32L191.24,40.55z"/>
		</g>
	</g>
	<g>
		<path class="st0" d="M206.73,28.52v-2.57h-0.92v-0.52h2.46v0.52h-0.92v2.57H206.73z"/>
		<path class="st0" d="M208.67,28.52v-3.09h0.93l0.56,2.11l0.56-2.11h0.94v3.09h-0.58v-2.44l-0.61,2.44h-0.6l-0.61-2.44v2.44H208.67
			z"/>
	</g>
	<g>
		<path class="st0" d="M48.73,51.28c0-0.1,0.16-0.15,0.49-0.15h0.2c0.31,0,0.49,0.06,0.52,0.18l0.59,1.9
			c0.01,0.03,0.09,0.31,0.24,0.85c0.03-0.16,0.12-0.44,0.27-0.85l0.64-1.96c0.03-0.08,0.17-0.12,0.43-0.12h0.3
			c0.26,0,0.4,0.04,0.43,0.12l0.62,1.96c0.09,0.29,0.18,0.59,0.27,0.89c0.04-0.11,0.09-0.28,0.15-0.48c0.06-0.21,0.1-0.34,0.12-0.41
			l0.61-1.9c0.04-0.12,0.21-0.18,0.52-0.18h0.09c0.32,0,0.49,0.05,0.49,0.15c0,0.01-0.01,0.04-0.02,0.09l-1.28,3.8
			c-0.03,0.08-0.17,0.12-0.43,0.12H53.4c-0.27,0-0.41-0.04-0.43-0.12l-0.77-2.45l-0.8,2.45c-0.03,0.08-0.17,0.12-0.43,0.12h-0.56
			c-0.27,0-0.41-0.04-0.43-0.12l-1.24-3.8C48.73,51.34,48.73,51.31,48.73,51.28z"/>
		<path class="st0" d="M59.33,55.04v-3.67c0-0.16,0.1-0.24,0.31-0.24h2.86c0.16,0,0.23,0.1,0.23,0.3v0.18c0,0.2-0.08,0.3-0.23,0.3
			h-1.97v0.86h1.76c0.16,0,0.23,0.1,0.23,0.3v0.18c0,0.2-0.08,0.3-0.23,0.3h-1.76v0.96h1.98c0.16,0,0.23,0.1,0.23,0.3v0.18
			c0,0.2-0.08,0.3-0.23,0.3h-2.87C59.44,55.27,59.33,55.19,59.33,55.04z"/>
		<path class="st0" d="M71.37,54.8c0-0.09,0.06-0.2,0.18-0.33c0.12-0.13,0.22-0.2,0.31-0.2c0.03,0,0.1,0.02,0.2,0.06
			c0.32,0.14,0.64,0.21,0.95,0.21c0.49,0,0.74-0.14,0.74-0.43c0-0.13-0.08-0.23-0.23-0.32c-0.16-0.09-0.35-0.16-0.57-0.23
			c-0.22-0.06-0.44-0.14-0.66-0.22s-0.41-0.22-0.56-0.39c-0.16-0.18-0.23-0.4-0.23-0.67c0-0.27,0.09-0.49,0.28-0.68
			c0.34-0.34,0.86-0.51,1.57-0.51c0.4,0,0.73,0.04,1,0.13c0.27,0.09,0.41,0.18,0.41,0.28c0,0.09-0.05,0.19-0.15,0.32
			c-0.1,0.13-0.19,0.19-0.28,0.19c-0.02,0-0.07-0.01-0.14-0.04c-0.21-0.07-0.45-0.11-0.72-0.11c-0.27,0-0.46,0.04-0.57,0.11
			c-0.11,0.07-0.16,0.16-0.16,0.27c0,0.11,0.08,0.2,0.23,0.28c0.16,0.08,0.34,0.16,0.56,0.22c0.22,0.06,0.44,0.14,0.66,0.22
			s0.41,0.22,0.57,0.39c0.16,0.18,0.23,0.39,0.23,0.64c0,0.25-0.05,0.46-0.15,0.63c-0.1,0.18-0.24,0.31-0.42,0.41
			c-0.34,0.19-0.77,0.28-1.27,0.28c-0.5,0-0.92-0.06-1.26-0.17C71.54,55.03,71.37,54.92,71.37,54.8z"/>
		<path class="st0" d="M78.76,53.89v-2.58c0-0.13,0.16-0.19,0.47-0.19h0.27c0.31,0,0.47,0.06,0.47,0.19v2.52
			c0,0.21,0.1,0.38,0.3,0.51c0.2,0.13,0.45,0.2,0.77,0.2c0.31,0,0.57-0.07,0.77-0.2c0.2-0.13,0.3-0.31,0.3-0.51v-2.52
			c0-0.13,0.16-0.19,0.47-0.19h0.26c0.31,0,0.47,0.06,0.47,0.19v2.58c0,0.45-0.2,0.81-0.59,1.06c-0.4,0.25-0.95,0.38-1.67,0.38
			c-0.72,0-1.28-0.13-1.67-0.38C78.96,54.69,78.76,54.34,78.76,53.89z"/>
		<path class="st0" d="M87.49,55.1v-3.73c0-0.16,0.1-0.24,0.31-0.24h1.64c0.61,0,1.08,0.11,1.42,0.34c0.13,0.09,0.23,0.22,0.32,0.38
			c0.09,0.16,0.13,0.35,0.13,0.57c0,0.22-0.05,0.41-0.15,0.57c-0.1,0.16-0.22,0.29-0.36,0.38c-0.14,0.09-0.3,0.16-0.47,0.22
			c-0.28,0.09-0.55,0.13-0.81,0.13h-0.83v1.37c0,0.13-0.16,0.19-0.47,0.19h-0.27C87.64,55.28,87.49,55.22,87.49,55.1z M88.69,52.94
			h0.7c0.19,0,0.35-0.04,0.48-0.11c0.13-0.07,0.2-0.21,0.2-0.4c0-0.19-0.07-0.33-0.2-0.4c-0.13-0.08-0.29-0.12-0.48-0.12h-0.7V52.94
			z"/>
		<path class="st0" d="M95.08,55.1v-3.73c0-0.16,0.1-0.24,0.31-0.24h1.64c0.61,0,1.08,0.11,1.42,0.34c0.13,0.09,0.23,0.22,0.32,0.38
			c0.09,0.16,0.13,0.35,0.13,0.57c0,0.22-0.05,0.41-0.15,0.57c-0.1,0.16-0.22,0.29-0.36,0.38c-0.14,0.09-0.3,0.16-0.47,0.22
			c-0.28,0.09-0.55,0.13-0.81,0.13h-0.83v1.37c0,0.13-0.16,0.19-0.47,0.19h-0.27C95.23,55.28,95.08,55.22,95.08,55.1z M96.28,52.94
			h0.7c0.19,0,0.35-0.04,0.48-0.11c0.13-0.07,0.2-0.21,0.2-0.4c0-0.19-0.07-0.33-0.2-0.4c-0.13-0.08-0.29-0.12-0.48-0.12h-0.7V52.94
			z"/>
		<path class="st0" d="M102.67,55.04v-3.73c0-0.13,0.16-0.19,0.47-0.19h0.27c0.31,0,0.47,0.06,0.47,0.19v3.19h1.74
			c0.16,0,0.23,0.1,0.23,0.3v0.18c0,0.2-0.08,0.3-0.23,0.3h-2.64C102.77,55.27,102.67,55.19,102.67,55.04z"/>
		<path class="st0" d="M110.63,55.1v-1.81l-1.56-1.9c-0.05-0.07-0.08-0.12-0.08-0.15c0-0.08,0.17-0.12,0.5-0.12h0.34
			c0.26,0,0.41,0.04,0.47,0.11l0.96,1.27l0.96-1.27c0.06-0.08,0.21-0.11,0.47-0.11h0.28c0.33,0,0.49,0.04,0.49,0.12
			c0,0.04-0.02,0.09-0.07,0.15l-1.56,1.92v1.79c0,0.13-0.16,0.19-0.47,0.19h-0.27C110.79,55.28,110.63,55.22,110.63,55.1z"/>
		<path class="st0" d="M122.09,55.27v-4.38c0-0.1,0.13-0.16,0.39-0.16h0.12c0.26,0,0.39,0.05,0.39,0.16v4.38
			c0,0.1-0.13,0.16-0.39,0.16h-0.12C122.22,55.42,122.09,55.37,122.09,55.27z"/>
		<path class="st0" d="M131.62,51.28c0-0.1,0.16-0.15,0.49-0.15h0.2c0.31,0,0.49,0.06,0.52,0.18l0.59,1.9
			c0.01,0.03,0.09,0.31,0.24,0.85c0.03-0.16,0.12-0.44,0.27-0.85l0.64-1.96c0.03-0.08,0.17-0.12,0.43-0.12h0.3
			c0.26,0,0.41,0.04,0.43,0.12l0.62,1.96c0.09,0.29,0.18,0.59,0.27,0.89c0.04-0.11,0.08-0.28,0.14-0.48
			c0.06-0.21,0.1-0.34,0.12-0.41l0.61-1.9c0.04-0.12,0.21-0.18,0.52-0.18h0.09c0.32,0,0.49,0.05,0.49,0.15c0,0.01,0,0.04-0.02,0.09
			l-1.28,3.8c-0.03,0.08-0.17,0.12-0.43,0.12h-0.57c-0.27,0-0.41-0.04-0.43-0.12l-0.77-2.45l-0.8,2.45
			c-0.03,0.08-0.17,0.12-0.43,0.12h-0.56c-0.27,0-0.41-0.04-0.43-0.12l-1.24-3.8C131.63,51.34,131.62,51.31,131.62,51.28z"/>
		<path class="st0" d="M142.22,55.04v-3.67c0-0.16,0.1-0.24,0.31-0.24h2.86c0.16,0,0.23,0.1,0.23,0.3v0.18c0,0.2-0.08,0.3-0.23,0.3
			h-1.97v0.86h1.76c0.16,0,0.23,0.1,0.23,0.3v0.18c0,0.2-0.08,0.3-0.23,0.3h-1.76v0.96h1.98c0.16,0,0.23,0.1,0.23,0.3v0.18
			c0,0.2-0.08,0.3-0.23,0.3h-2.87C142.33,55.27,142.22,55.19,142.22,55.04z"/>
		<path class="st0" d="M154.45,53.19c0-1.4,0.87-2.11,2.61-2.11c0.38,0,0.75,0.04,1.1,0.12c0.35,0.08,0.53,0.18,0.53,0.3
			c0,0.09-0.06,0.2-0.18,0.34c-0.12,0.14-0.23,0.21-0.32,0.21c-0.02,0-0.07-0.02-0.16-0.05c-0.27-0.09-0.6-0.14-0.99-0.14
			c-0.9,0-1.35,0.45-1.35,1.34c0,0.89,0.45,1.34,1.34,1.34c0.38,0,0.74-0.06,1.08-0.18c0.11-0.04,0.18-0.06,0.2-0.06
			c0.11,0,0.21,0.07,0.31,0.2c0.1,0.14,0.15,0.24,0.15,0.31c0,0.16-0.19,0.28-0.58,0.37c-0.39,0.09-0.77,0.13-1.17,0.13
			c-0.88,0-1.52-0.17-1.94-0.52C154.66,54.46,154.45,53.92,154.45,53.19z"/>
		<path class="st0" d="M162.07,55.15c0-0.02,0.01-0.05,0.03-0.11l1.72-3.8c0.04-0.08,0.19-0.12,0.45-0.12h0.41
			c0.26,0,0.4,0.04,0.45,0.12l1.72,3.8c0.02,0.04,0.02,0.08,0.02,0.11c0,0.09-0.13,0.13-0.39,0.13h-0.34c-0.26,0-0.4-0.04-0.44-0.12
			l-0.31-0.72h-1.85l-0.31,0.72c-0.04,0.08-0.16,0.12-0.36,0.12h-0.31C162.23,55.28,162.07,55.24,162.07,55.15z M163.87,53.66h1.17
			l-0.45-1.05l-0.12-0.38h-0.03c-0.05,0.19-0.09,0.31-0.12,0.38L163.87,53.66z"/>
		<path class="st0" d="M170.53,55.1v-3.73c0-0.16,0.1-0.24,0.31-0.24h1.53c1.3,0,1.95,0.37,1.95,1.11c0,0.22-0.08,0.41-0.25,0.58
			c-0.16,0.16-0.39,0.28-0.67,0.36v0.02c0.1,0.03,0.2,0.09,0.3,0.2c0.1,0.1,0.19,0.22,0.26,0.35l0.69,1.3
			c0.03,0.05,0.04,0.09,0.04,0.11c0,0.08-0.16,0.12-0.47,0.12h-0.32c-0.26,0-0.41-0.04-0.45-0.12l-0.62-1.15
			c-0.09-0.13-0.18-0.22-0.29-0.28c-0.1-0.05-0.27-0.08-0.51-0.08h-0.3v1.44c0,0.13-0.16,0.19-0.47,0.19H171
			C170.69,55.28,170.53,55.22,170.53,55.1z M171.74,52.87h0.74c0.16,0,0.3-0.05,0.42-0.15c0.12-0.1,0.18-0.22,0.18-0.36
			c0-0.14-0.06-0.25-0.18-0.33c-0.12-0.08-0.28-0.12-0.48-0.12h-0.69V52.87z"/>
		<path class="st0" d="M178.44,55.04v-3.67c0-0.16,0.1-0.24,0.31-0.24h2.86c0.16,0,0.23,0.1,0.23,0.3v0.18c0,0.2-0.08,0.3-0.23,0.3
			h-1.97v0.86h1.76c0.16,0,0.23,0.1,0.23,0.3v0.18c0,0.2-0.08,0.3-0.23,0.3h-1.76v0.96h1.98c0.16,0,0.23,0.1,0.23,0.3v0.18
			c0,0.2-0.08,0.3-0.23,0.3h-2.87C178.54,55.27,178.44,55.19,178.44,55.04z"/>
	</g>
	<g>
		<path class="st0" d="M117.54,61.43H34.97c-14.02,0-25.38-11.36-25.38-25.38v0c0-14.02,11.36-25.38,25.38-25.38h92.89L129,5.05
			H34.27c-17.12,0-31,13.88-31,31v0c0,17.12,13.88,31,31,31h82.13L117.54,61.43z"/>
		<path class="st0" d="M192.27,5.05h-57.78l-1.14,5.62h58.51c14.02,0,25.38,11.36,25.38,25.38v0c0,14.02-11.36,25.38-25.38,25.38
			h-68.83l-1.14,5.62h70.38c17.12,0,31-13.88,31-31v0C223.27,18.93,209.39,5.05,192.27,5.05z"/>
	</g>
</g>
</svg>
