<?xml version="1.0" encoding="utf-8"?>
<!-- Generator: Adobe Illustrator 26.3.1, SVG Export Plug-In . SVG Version: 6.00 Build 0)  -->
<svg version="1.1" id="Layer_1" xmlns="http://www.w3.org/2000/svg" xmlns:xlink="http://www.w3.org/1999/xlink" x="0px" y="0px"
	 viewBox="0 0 23 20" style="enable-background:new 0 0 23 20;" xml:space="preserve">
<path d="M21.5,2.5H7.62l0.37,1.9H20.4L19,10.6H7.2L6.6,7.5l-0.01,0l-0.97-5L5.58,2.41L5.42,1.48l-0.1-0.53l0-0.06L5.3,0.8
	C5.2,0.4,4.8,0,4.4,0H0.5C0.2,0,0,0.2,0,0.5v0.9c0,0.3,0.2,0.5,0.5,0.5h3.1l2.7,13.9c-0.4,0.5-0.7,1.1-0.7,1.7
	c0,1.4,1.1,2.5,2.5,2.5c1.4,0,2.5-1.1,2.5-2.5c0-0.4-0.2-0.9-0.4-1.2h5.7c-0.2,0.4-0.3,0.9-0.3,1.2c0,1.4,1.1,2.5,2.5,2.5
	c1.4,0,2.5-1.1,2.5-2.5c0-0.7-0.3-1.3-0.8-1.8v-0.2c0.1-0.6-0.3-1.2-0.9-1.2h-11l-0.4-1.9h12.2c0.5,0,0.8-0.3,0.9-0.7l1.8-8.1
	C22.6,3.1,22.1,2.5,21.5,2.5z M18.1,16.6c0.5,0,0.9,0.4,0.9,0.9c0.1,0.5-0.4,0.9-0.9,0.9s-0.9-0.4-0.9-0.9S17.6,16.6,18.1,16.6z
	 M8.1,16.6C8.6,16.6,9,17,9,17.5c0.1,0.5-0.4,0.9-0.9,0.9S7.2,18,7.2,17.5S7.6,16.6,8.1,16.6z"/>
</svg>
