<?xml version="1.0" encoding="utf-8"?>
<!-- Generator: Adobe Illustrator 26.3.1, SVG Export Plug-In . SVG Version: 6.00 Build 0)  -->
<svg version="1.1" id="Layer_1" xmlns="http://www.w3.org/2000/svg" xmlns:xlink="http://www.w3.org/1999/xlink" x="0px" y="0px"
	 viewBox="0 0 88.14 88.98" style="enable-background:new 0 0 88.14 88.98;" xml:space="preserve">
<path d="M56.74,48.19c5.99-3.98,9.96-10.78,9.96-18.5c0-12.24-9.96-22.2-22.2-22.2s-22.2,9.96-22.2,22.2
	c0,7.72,3.96,14.52,9.96,18.5c-13.56,5-23.28,18.02-23.28,33.3h5.92c0-16.32,13.28-29.6,29.6-29.6c16.32,0,29.6,13.28,29.6,29.6
	h5.92C80.01,66.21,70.3,53.2,56.74,48.19z M44.49,45.97c-8.98,0-16.28-7.3-16.28-16.28s7.3-16.28,16.28-16.28s16.28,7.3,16.28,16.28
	S53.47,45.97,44.49,45.97z"/>
</svg>
